<svg width="86" height="86" viewBox="0 0 86 86" fill="none" xmlns="http://www.w3.org/2000/svg">
<g clip-path="url(#clip0_3763_9498)">
<rect width="86" height="86" fill="url(#paint0_radial_3763_9498)"/>
<path fill-rule="evenodd" clip-rule="evenodd" d="M72.1936 19.7097C72.1936 24.5199 68.2941 28.4194 63.4839 28.4194C63.1007 28.4194 62.7234 28.3946 62.3533 28.3466C61.7743 28.2716 61.1776 28.4275 60.7648 28.8403V28.8403C60.1187 29.4864 60.1145 30.5275 60.7033 31.2262C64.25 35.4354 66.3871 40.8714 66.3871 46.8064C66.3871 60.1682 55.5553 71 42.1935 71C28.8318 71 18 60.1682 18 46.8064C18 33.4447 28.8318 22.6129 42.1935 22.6129C45.6481 22.6129 48.9336 23.3369 51.9064 24.6415C52.7684 25.0198 53.7848 24.8715 54.4504 24.2059V24.2059C55.0766 23.5797 55.2312 22.6395 55.0215 21.7791C54.8599 21.1158 54.7742 20.4227 54.7742 19.7097C54.7742 14.8995 58.6736 11 63.4839 11C68.2941 11 72.1936 14.8995 72.1936 19.7097ZM42.1935 59.3871C49.1416 59.3871 54.7742 53.7546 54.7742 46.8064C54.7742 39.8584 49.1416 34.2258 42.1935 34.2258C35.2454 34.2258 29.6129 39.8584 29.6129 46.8064C29.6129 53.7546 35.2454 59.3871 42.1935 59.3871Z" fill="white"/>
</g>
<defs>
<radialGradient id="paint0_radial_3763_9498" cx="0" cy="0" r="1" gradientUnits="userSpaceOnUse" gradientTransform="rotate(45) scale(121.622)">
<stop stop-color="#EA2F72"/>
<stop offset="1" stop-color="#C1184B"/>
</radialGradient>
<clipPath id="clip0_3763_9498">
<rect width="86" height="86" fill="white"/>
</clipPath>
</defs>
</svg>
